<svg width="833.429" height="194.342" xmlns="http://www.w3.org/2000/svg">

 <g>
  <title>background</title>
  <rect fill="none" id="canvas_background" height="402" width="582" y="-1" x="-1"/>
 </g>
 <g>
  <title>Layer 1</title>
  <path fill="#ffffff" id="svg_1" d="m422.729,139.557c-17.114,0 -3.813,34.45 -14.176,34.45s1.204,-26.338 -16.074,-26.338c-16.677,0 -5.354,46.673 -15.371,46.673c-15.928,0 6.916,-54.707 -30.321,-54.707c-9.532,0 -44.89,0 -44.89,0l0,-120.515l60.427,-19.12l60.19,19.044l0.215,120.513zm-60.229,-112.245c-27.747,0 -50.24,22.493 -50.24,50.239c0,27.747 22.493,50.241 50.24,50.241s50.24,-22.494 50.24,-50.241c0,-27.746 -22.493,-50.239 -50.24,-50.239zm32.417,50.374c0,-17.881 -14.495,-32.376 -32.376,-32.376c-17.882,0 -32.377,14.496 -32.377,32.376c0,17.882 14.495,32.377 32.377,32.377c17.881,0 32.376,-14.495 32.376,-32.377z"/>
  <g id="svg_2">
   <path fill="#ffffff" id="svg_3" d="m0,29.302l20.016,0l0,110.699l-20.016,0l0,-110.699z"/>
   <path fill="#ffffff" id="svg_4" d="m68.272,58.058c7.542,0 14.631,1.885 21.268,5.654c6.637,3.771 11.815,8.886 15.538,15.348c3.722,6.465 5.584,13.44 5.584,20.93c0,7.539 -1.874,14.59 -5.621,21.149c-3.747,6.561 -8.852,11.69 -15.317,15.386c-6.465,3.694 -13.591,5.545 -21.377,5.545c-11.462,0 -21.245,-4.074 -29.351,-12.229c-8.105,-8.151 -12.158,-18.052 -12.158,-29.704c0,-12.484 4.579,-22.889 13.738,-31.211c8.031,-7.245 17.264,-10.868 27.696,-10.868zm0.347,18.889c-6.226,0 -11.41,2.168 -15.553,6.502c-4.142,4.336 -6.212,9.885 -6.212,16.646c0,6.957 2.045,12.591 6.139,16.902c4.094,4.311 9.277,6.467 15.553,6.467c6.274,0 11.494,-2.18 15.661,-6.541c4.167,-4.358 6.251,-9.968 6.251,-16.828c0,-6.858 -2.047,-12.432 -6.141,-16.719c-4.094,-4.287 -9.325,-6.429 -15.698,-6.429z"/>
   <path fill="#ffffff" id="svg_5" d="m157.003,58.058c7.542,0 14.63,1.885 21.267,5.654c6.637,3.771 11.816,8.886 15.538,15.348c3.723,6.465 5.584,13.44 5.584,20.93c0,7.539 -1.874,14.59 -5.621,21.149c-3.747,6.561 -8.852,11.69 -15.317,15.386c-6.465,3.694 -13.591,5.545 -21.377,5.545c-11.461,0 -21.245,-4.074 -29.35,-12.229c-8.105,-8.151 -12.158,-18.052 -12.158,-29.704c0,-12.484 4.578,-22.889 13.737,-31.211c8.032,-7.245 17.265,-10.868 27.697,-10.868zm0.347,18.889c-6.226,0 -11.41,2.168 -15.552,6.502c-4.142,4.336 -6.212,9.885 -6.212,16.646c0,6.957 2.045,12.591 6.139,16.902c4.094,4.311 9.277,6.467 15.552,6.467c6.274,0 11.494,-2.18 15.661,-6.541c4.167,-4.358 6.25,-9.968 6.25,-16.828c0,-6.858 -2.046,-12.432 -6.14,-16.719c-4.094,-4.287 -9.325,-6.429 -15.698,-6.429z"/>
   <path fill="#ffffff" id="svg_6" d="m228.168,60.125l0,8.811c3.617,-3.625 7.527,-6.345 11.729,-8.158c4.203,-1.812 8.7,-2.719 13.49,-2.719c10.41,0 19.255,3.941 26.538,11.823c7.282,7.882 10.923,17.992 10.923,30.329c0,11.896 -3.763,21.849 -11.29,29.854s-16.447,12.007 -26.757,12.007c-4.596,0 -8.872,-0.819 -12.83,-2.455c-3.959,-1.639 -7.894,-4.313 -11.803,-8.028l0,37.641l-10.405,0l-9.517,0l0,-109.105l19.922,0zm21.02,16.446c-6.291,0 -11.506,2.155 -15.65,6.466c-4.144,4.312 -6.215,9.945 -6.215,16.9c0,7.104 2.072,12.847 6.215,17.23c4.144,4.385 9.359,6.577 15.65,6.577c6.093,0 11.224,-2.229 15.392,-6.687c4.167,-4.458 6.252,-10.141 6.252,-17.047c0,-6.857 -2.049,-12.48 -6.144,-16.864c-4.094,-4.384 -9.262,-6.575 -15.5,-6.575z"/>
   <path fill="#ffffff" id="svg_7" d="m497.108,29.302l20.015,0l0,110.699l-20.015,0l0,-8.421c-3.909,3.717 -7.831,6.394 -11.764,8.032c-3.934,1.638 -8.196,2.457 -12.787,2.457c-10.31,0 -19.228,-4.002 -26.75,-12.007c-7.524,-8.005 -11.286,-17.957 -11.286,-29.854c0,-12.337 3.639,-22.447 10.918,-30.329c7.281,-7.882 16.125,-11.823 26.532,-11.823c4.786,0 9.281,0.906 13.483,2.718c4.2,1.812 8.085,4.531 11.653,8.155l0,-39.627l0.001,0zm-21.045,47.269c-6.179,0 -11.311,2.191 -15.396,6.576c-4.087,4.384 -6.129,10.007 -6.129,16.864c0,6.906 2.079,12.589 6.239,17.047c4.158,4.458 9.278,6.687 15.357,6.687c6.275,0 11.481,-2.192 15.616,-6.577c4.135,-4.384 6.203,-10.127 6.203,-17.23c0,-6.955 -2.068,-12.589 -6.203,-16.9c-4.134,-4.312 -9.365,-6.467 -15.687,-6.467z"/>
   <path fill="#ffffff" id="svg_8" d="m609.917,105.889l-64.392,0c0.93,5.659 3.415,10.159 7.453,13.502c4.037,3.342 9.189,5.011 15.456,5.011c7.488,0 13.926,-2.609 19.312,-7.829l16.889,7.935c-4.208,5.978 -9.249,10.397 -15.12,13.265c-5.874,2.863 -12.847,4.298 -20.92,4.298c-12.527,0 -22.731,-3.954 -30.61,-11.86c-7.879,-7.907 -11.816,-17.81 -11.816,-29.706c0,-12.189 3.926,-22.311 11.78,-30.365c7.854,-8.054 17.702,-12.081 29.544,-12.081c12.575,0 22.801,4.029 30.681,12.087c7.879,8.058 11.818,18.699 11.818,31.924l-0.075,3.819zm-20.036,-15.786c-1.326,-4.478 -3.939,-8.119 -7.841,-10.924c-3.902,-2.804 -8.43,-4.207 -13.582,-4.207c-5.596,0 -10.504,1.575 -14.724,4.723c-2.652,1.969 -5.106,5.438 -7.363,10.407l43.51,0l0,0.001z"/>
   <path fill="#ffffff" id="svg_9" d="m638.58,60.125l0,8.811c3.617,-3.625 7.527,-6.345 11.729,-8.158c4.202,-1.812 8.699,-2.719 13.489,-2.719c10.41,0 19.256,3.941 26.538,11.823s10.924,17.992 10.924,30.329c0,11.896 -3.765,21.849 -11.29,29.854c-7.526,8.005 -16.447,12.007 -26.758,12.007c-4.596,0 -8.871,-0.819 -12.83,-2.455c-3.959,-1.639 -7.894,-4.313 -11.803,-8.028l0,37.641l-19.922,0l0,-109.105l19.923,0zm21.019,16.446c-6.29,0 -11.506,2.155 -15.649,6.466c-4.145,4.312 -6.216,9.945 -6.216,16.9c0,7.104 2.071,12.847 6.216,17.23c4.144,4.385 9.359,6.577 15.649,6.577c6.094,0 11.224,-2.229 15.392,-6.687s6.253,-10.141 6.253,-17.047c0,-6.857 -2.049,-12.48 -6.144,-16.864c-4.096,-4.384 -9.263,-6.575 -15.501,-6.575z"/>
   <path fill="#ffffff" id="svg_10" d="m747.886,58.058c7.541,0 14.631,1.885 21.268,5.654c6.637,3.771 11.814,8.886 15.538,15.348c3.722,6.465 5.584,13.44 5.584,20.93c0,7.539 -1.874,14.59 -5.622,21.149c-3.746,6.561 -8.853,11.69 -15.316,15.386c-6.466,3.694 -13.592,5.545 -21.378,5.545c-11.462,0 -21.245,-4.074 -29.351,-12.229c-8.104,-8.151 -12.157,-18.052 -12.157,-29.704c0,-12.484 4.578,-22.889 13.737,-31.211c8.032,-7.245 17.265,-10.868 27.697,-10.868zm0.347,18.889c-6.226,0 -11.41,2.168 -15.552,6.502c-4.144,4.336 -6.213,9.885 -6.213,16.646c0,6.957 2.045,12.591 6.139,16.902c4.094,4.311 9.276,6.467 15.552,6.467c6.274,0 11.494,-2.18 15.662,-6.541c4.167,-4.358 6.251,-9.968 6.251,-16.828c0,-6.858 -2.047,-12.432 -6.142,-16.719c-4.093,-4.287 -9.325,-6.429 -15.697,-6.429z"/>
   <path fill="#ffffff" id="svg_11" d="m801.479,30.711l20.016,0l0,29.413l11.935,0l0,17.292l-11.935,0l0,62.585l-20.016,0l0,-62.584l-10.243,0l0,-17.292l10.243,0l0,-29.414z"/>
  </g>
 </g>
</svg>